name analog
datacolumns 19
datarows 85
range 0.318 0.36
endheader
time	ground_force_vx	ground_force_vy	ground_force_vz	ground_force_px	ground_force_py	ground_force_pz	l_ground_force_vx	l_ground_force_vy	l_ground_force_vz	l_ground_force_px	l_ground_force_py	l_ground_force_pz	ground_torque_x	ground_torque_y	ground_torque_z	l_ground_torque_x	l_ground_torque_y	l_ground_torque_z
0.318	-0.0	-0.0	-0.0	-0.536040723323822	-4.169235706329346	-788.8084106445312	-0.0	-0.0	-0.0	-0.0	-0.0	-0.0	-0.0	-0.0	-0.0	-0.0	-0.0	-0.0
0.3185	-0.0	-0.0	-0.0	-0.6444188356399536	-4.139853477478027	-791.8667602539062	-0.0	-0.0	-0.0	-0.0	-0.0	-0.0	-0.0	-0.0	-0.0	-0.0	-0.0	-0.0
0.319	-0.0	-0.0	-0.0	-0.2876126766204834	-5.337138652801514	-790.8489990234375	-0.0	-0.0	-0.0	-0.0	-0.0	-0.0	-0.0	-0.0	-0.0	-0.0	-0.0	-0.0
0.3195	-0.0	-0.0	-0.0	0.5043680667877197	-5.54434871673584	-791.7139282226562	-0.0	-0.0	-0.0	-0.0	-0.0	-0.0	-0.0	-0.0	-0.0	-0.0	-0.0	-0.0
0.32	-0.0	-0.0	-0.0	1.030418038368225	-6.167970180511475	-788.57958984375	-0.0	-0.0	-0.0	-0.0	-0.0	-0.0	-0.0	-0.0	-0.0	-0.0	-0.0	-0.0
0.3205	-0.0	-0.0	-0.0	0.7249121069908142	-6.328258514404297	-786.2229614257812	-0.0	-0.0	-0.0	-0.0	-0.0	-0.0	-0.0	-0.0	-0.0	-0.0	-0.0	-0.0
0.321	-0.0	-0.0	-0.0	1.5340063571929932	-7.029901504516602	-781.5634155273438	-0.0	-0.0	-0.0	-0.0	-0.0	-0.0	-0.0	-0.0	-0.0	-0.0	-0.0	-0.0
0.3215	-0.0	-0.0	-0.0	2.0805704593658447	-7.79463005065918	-777.223388671875	-0.0	-0.0	-0.0	-0.0	-0.0	-0.0	-0.0	-0.0	-0.0	-0.0	-0.0	-0.0
0.322	-0.0	-0.0	-0.0	2.627491950988769	-8.14789867401123	-770.3988037109375	-0.0	-0.0	-0.0	-0.0	-0.0	-0.0	-0.0	-0.0	-0.0	-0.0	-0.0	-0.0
0.3225	-0.0	-0.0	-0.0	2.5015437602996826	-7.746062278747559	-764.6017456054688	-0.0	-0.0	-0.0	-0.0	-0.0	-0.0	-0.0	-0.0	-0.0	-0.0	-0.0	-0.0
0.323	-0.0	-0.0	-0.0	2.923680305480957	-7.142543315887451	-759.6900634765625	-0.0	-0.0	-0.0	-0.0	-0.0	-0.0	-0.0	-0.0	-0.0	-0.0	-0.0	-0.0
0.3235	-0.0	-0.0	-0.0	2.4775941371917725	-7.3855438232421875	-757.4588623046875	-0.0	-0.0	-0.0	-0.0	-0.0	-0.0	-0.0	-0.0	-0.0	-0.0	-0.0	-0.0
0.324	-0.0	-0.0	-0.0	1.6464625597000122	-6.883359432220459	-756.10888671875	-0.0	-0.0	-0.0	-0.0	-0.0	-0.0	-0.0	-0.0	-0.0	-0.0	-0.0	-0.0
0.3245	-0.0	-0.0	-0.0	0.2114493250846862	-7.232206344604492	-756.4002075195312	-0.0	-0.0	-0.0	-0.0	-0.0	-0.0	-0.0	-0.0	-0.0	-0.0	-0.0	-0.0
0.325	-0.0	-0.0	-0.0	-1.6541860103607178	-7.550459861755371	-756.6222534179688	-0.0	-0.0	-0.0	-0.0	-0.0	-0.0	-0.0	-0.0	-0.0	-0.0	-0.0	-0.0
0.3255	-0.0	-0.0	-0.0	-2.9235036373138428	-7.390392780303955	-759.5281982421875	-0.0	-0.0	-0.0	-0.0	-0.0	-0.0	-0.0	-0.0	-0.0	-0.0	-0.0	-0.0
0.326	-0.0	-0.0	-0.0	-4.1651225090026855	-7.692960739135742	-763.84716796875	-0.0	-0.0	-0.0	-0.0	-0.0	-0.0	-0.0	-0.0	-0.0	-0.0	-0.0	-0.0
0.3265	-0.0	-0.0	-0.0	-4.522068023681641	-8.480735778808594	-768.3571166992188	-0.0	-0.0	-0.0	-0.0	-0.0	-0.0	-0.0	-0.0	-0.0	-0.0	-0.0	-0.0
0.327	-0.0	-0.0	-0.0	-4.2821044921875	-8.666180610656738	-771.3726806640625	-0.0	-0.0	-0.0	-0.0	-0.0	-0.0	-0.0	-0.0	-0.0	-0.0	-0.0	-0.0
0.3275	-0.0	-0.0	-0.0	-3.7056686878204346	-9.077591896057127	-775.5831298828125	-0.0	-0.0	-0.0	-0.0	-0.0	-0.0	-0.0	-0.0	-0.0	-0.0	-0.0	-0.0
0.328	-0.0	-0.0	-0.0	-2.2096400260925293	-8.940357208251953	-775.5299682617188	-0.0	-0.0	-0.0	-0.0	-0.0	-0.0	-0.0	-0.0	-0.0	-0.0	-0.0	-0.0
0.3285	-0.0	-0.0	-0.0	-1.543819546699524	-8.44675064086914	-775.4196166992188	-0.0	-0.0	-0.0	-0.0	-0.0	-0.0	-0.0	-0.0	-0.0	-0.0	-0.0	-0.0
0.329	-0.0	-0.0	-0.0	-1.1597366333007812	-8.405364990234375	-774.4981079101562	-0.0	-0.0	-0.0	-0.0	-0.0	-0.0	-0.0	-0.0	-0.0	-0.0	-0.0	-0.0
0.3295	-0.0	-0.0	-0.0	-0.3298198282718658	-7.679638385772705	-772.5437622070312	-0.0	-0.0	-0.0	-0.0	-0.0	-0.0	-0.0	-0.0	-0.0	-0.0	-0.0	-0.0
0.33	-0.0	-0.0	-0.0	-0.1038120687007904	-6.274460315704346	-771.6981201171875	-0.0	-0.0	-0.0	-0.0	-0.0	-0.0	-0.0	-0.0	-0.0	-0.0	-0.0	-0.0
0.3305	-0.0	-0.0	-0.0	-1.192565679550171	-5.362594604492188	-771.344970703125	-0.0	-0.0	-0.0	-0.0	-0.0	-0.0	-0.0	-0.0	-0.0	-0.0	-0.0	-0.0
0.331	-0.0	-0.0	-0.0	-0.5918997526168823	-5.122066020965576	-772.028076171875	-0.0	-0.0	-0.0	-0.0	-0.0	-0.0	-0.0	-0.0	-0.0	-0.0	-0.0	-0.0
0.3315	-0.0	-0.0	-0.0	-1.1388676166534424	-4.456520080566406	-771.8406982421875	-0.0	-0.0	-0.0	-0.0	-0.0	-0.0	-0.0	-0.0	-0.0	-0.0	-0.0	-0.0
0.332	-0.0	-0.0	-0.0	-1.0761147737503052	-4.551234245300293	-773.5689697265625	-0.0	-0.0	-0.0	-0.0	-0.0	-0.0	-0.0	-0.0	-0.0	-0.0	-0.0	-0.0
0.3325	-0.0	-0.0	-0.0	-1.448310136795044	-3.444286584854126	-775.0641479492188	-0.0	-0.0	-0.0	-0.0	-0.0	-0.0	-0.0	-0.0	-0.0	-0.0	-0.0	-0.0
0.333	-0.0	-0.0	-0.0	-2.413991928100586	-2.8102593421936035	-778.3255615234375	-0.0	-0.0	-0.0	-0.0	-0.0	-0.0	-0.0	-0.0	-0.0	-0.0	-0.0	-0.0
0.3335	-0.0	-0.0	-0.0	-3.221902847290039	-4.037018775939941	-781.3171997070312	-0.0	-0.0	-0.0	-0.0	-0.0	-0.0	-0.0	-0.0	-0.0	-0.0	-0.0	-0.0
0.334	-0.0	-0.0	-0.0	-4.355282783508301	-4.173110961914063	-783.3331909179688	-0.0	-0.0	-0.0	-0.0	-0.0	-0.0	-0.0	-0.0	-0.0	-0.0	-0.0	-0.0
0.3345	-0.0	-0.0	-0.0	-4.643825531005859	-4.031931877136231	-789.9800415039062	-0.0	-0.0	-0.0	-0.0	-0.0	-0.0	-0.0	-0.0	-0.0	-0.0	-0.0	-0.0
0.335	-0.0	-0.0	-0.0	-5.153090953826904	-4.2829909324646	-791.020751953125	-0.0	-0.0	-0.0	-0.0	-0.0	-0.0	-0.0	-0.0	-0.0	-0.0	-0.0	-0.0
0.3355	-0.0	-0.0	-0.0	-5.472176551818848	-4.184543132781982	-793.0928344726562	-0.0	-0.0	-0.0	-0.0	-0.0	-0.0	-0.0	-0.0	-0.0	-0.0	-0.0	-0.0
0.336	-0.0	-0.0	-0.0	-5.157462120056152	-4.146783828735352	-795.27734375	-0.0	-0.0	-0.0	-0.0	-0.0	-0.0	-0.0	-0.0	-0.0	-0.0	-0.0	-0.0
0.3365	-0.0	-0.0	-0.0	-5.00009822845459	-3.7136595249176025	-796.7568969726562	-0.0	-0.0	-0.0	-0.0	-0.0	-0.0	-0.0	-0.0	-0.0	-0.0	-0.0	-0.0
0.337	-0.0	-0.0	-0.0	-5.420579433441162	-4.210371494293213	-797.83349609375	-0.0	-0.0	-0.0	-0.0	-0.0	-0.0	-0.0	-0.0	-0.0	-0.0	-0.0	-0.0
0.3375	-0.0	-0.0	-0.0	-5.220823764801025	-3.956267356872559	-800.2055053710938	-0.0	-0.0	-0.0	-0.0	-0.0	-0.0	-0.0	-0.0	-0.0	-0.0	-0.0	-0.0
0.338	-0.0	-0.0	-0.0	-4.4605255126953125	-4.427443504333496	-800.0369873046875	-0.0	-0.0	-0.0	-0.0	-0.0	-0.0	-0.0	-0.0	-0.0	-0.0	-0.0	-0.0
0.3385	-0.0	-0.0	-0.0	-3.768208980560303	-4.349777698516846	-798.89306640625	-0.0	-0.0	-0.0	-0.0	-0.0	-0.0	-0.0	-0.0	-0.0	-0.0	-0.0	-0.0
0.339	-0.0	-0.0	-0.0	-2.6263186931610107	-4.253283500671387	-796.61865234375	-0.0	-0.0	-0.0	-0.0	-0.0	-0.0	-0.0	-0.0	-0.0	-0.0	-0.0	-0.0
0.3395	-0.0	-0.0	-0.0	-2.6548774242401123	-4.342514991760254	-795.71435546875	-0.0	-0.0	-0.0	-0.0	-0.0	-0.0	-0.0	-0.0	-0.0	-0.0	-0.0	-0.0
0.34	-0.0	-0.0	-0.0	-2.811787843704224	-4.053778171539307	-794.4586181640625	-0.0	-0.0	-0.0	-0.0	-0.0	-0.0	-0.0	-0.0	-0.0	-0.0	-0.0	-0.0
0.3405	-0.0	-0.0	-0.0	-2.583936929702759	-3.8540985584259033	-795.28857421875	-0.0	-0.0	-0.0	-0.0	-0.0	-0.0	-0.0	-0.0	-0.0	-0.0	-0.0	-0.0
0.341	-0.0	-0.0	-0.0	-2.860802412033081	-4.059978485107422	-795.1053466796875	-0.0	-0.0	-0.0	-0.0	-0.0	-0.0	-0.0	-0.0	-0.0	-0.0	-0.0	-0.0
0.3415	-0.0	-0.0	-0.0	-2.7655258178710938	-4.099998474121094	-792.974365234375	-0.0	-0.0	-0.0	-0.0	-0.0	-0.0	-0.0	-0.0	-0.0	-0.0	-0.0	-0.0
0.342	-0.0	-0.0	-0.0	-2.5654876232147217	-4.745509147644043	-792.3429565429688	-0.0	-0.0	-0.0	-0.0	-0.0	-0.0	-0.0	-0.0	-0.0	-0.0	-0.0	-0.0
0.3425	-0.0	-0.0	-0.0	-2.6304080486297607	-4.8320722579956055	-792.429443359375	-0.0	-0.0	-0.0	-0.0	-0.0	-0.0	-0.0	-0.0	-0.0	-0.0	-0.0	-0.0
0.343	-0.0	-0.0	-0.0	-2.743838310241699	-5.142978191375732	-794.3114624023438	-0.0	-0.0	-0.0	-0.0	-0.0	-0.0	-0.0	-0.0	-0.0	-0.0	-0.0	-0.0
0.3435	-0.0	-0.0	-0.0	-2.45444655418396	-5.728363037109375	-793.6044921875	-0.0	-0.0	-0.0	-0.0	-0.0	-0.0	-0.0	-0.0	-0.0	-0.0	-0.0	-0.0
0.34400000000000003	-0.0	-0.0	-0.0	-1.1597366333007812	-5.708680152893066	-791.9327392578125	-0.0	-0.0	-0.0	-0.0	-0.0	-0.0	-0.0	-0.0	-0.0	-0.0	-0.0	-0.0
0.34450000000000003	-0.0	-0.0	-0.0	-0.3786360919475555	-5.060690879821777	-789.8829345703125	-0.0	-0.0	-0.0	-0.0	-0.0	-0.0	-0.0	-0.0	-0.0	-0.0	-0.0	-0.0
0.34500000000000003	-0.0	-0.0	-0.0	0.5134325623512268	-4.7021002769470215	-789.0189208984375	-0.0	-0.0	-0.0	-0.0	-0.0	-0.0	-0.0	-0.0	-0.0	-0.0	-0.0	-0.0
0.34550000000000003	-0.0	-0.0	-0.0	1.5401883125305176	-4.569239139556885	-788.564208984375	-0.0	-0.0	-0.0	-0.0	-0.0	-0.0	-0.0	-0.0	-0.0	-0.0	-0.0	-0.0
0.34600000000000003	-0.0	-0.0	-0.0	1.784210205078125	-3.9185194969177246	-784.486572265625	-0.0	-0.0	-0.0	-0.0	-0.0	-0.0	-0.0	-0.0	-0.0	-0.0	-0.0	-0.0
0.34650000000000003	-0.0	-0.0	-0.0	2.812328338623047	-3.1619341373443604	-786.2595825195312	-0.0	-0.0	-0.0	-0.0	-0.0	-0.0	-0.0	-0.0	-0.0	-0.0	-0.0	-0.0
0.34700000000000003	-0.0	-0.0	-0.0	3.4132912158966064	-2.8495373725891118	-785.0372314453125	-0.0	-0.0	-0.0	-0.0	-0.0	-0.0	-0.0	-0.0	-0.0	-0.0	-0.0	-0.0
0.34750000000000003	-0.0	-0.0	-0.0	3.123552083969116	-1.6934776306152344	-784.3302612304688	-0.0	-0.0	-0.0	-0.0	-0.0	-0.0	-0.0	-0.0	-0.0	-0.0	-0.0	-0.0
0.34800000000000003	-0.0	-0.0	-0.0	2.341516256332397	-0.9122897386550904	-782.9998779296875	-0.0	-0.0	-0.0	-0.0	-0.0	-0.0	-0.0	-0.0	-0.0	-0.0	-0.0	-0.0
0.34850000000000003	-0.0	-0.0	-0.0	2.4086837768554688	1.4949408769607544	-780.2583618164062	-0.0	-0.0	-0.0	-0.0	-0.0	-0.0	-0.0	-0.0	-0.0	-0.0	-0.0	-0.0
0.34900000000000003	-0.0	-0.0	-0.0	2.274489164352417	5.349338054656982	-781.1494140625	-0.0	-0.0	-0.0	-0.0	-0.0	-0.0	-0.0	-0.0	-0.0	-0.0	-0.0	-0.0
0.34950000000000003	-0.0	-0.0	-0.0	0.2897811830043793	6.952171325683594	-779.1124877929688	-0.0	-0.0	-0.0	-0.0	-0.0	-0.0	-0.0	-0.0	-0.0	-0.0	-0.0	-0.0
0.35000000000000003	-0.0	-0.0	-0.0	-1.449554204940796	6.350424766540527	-779.1112670898438	-0.0	-0.0	-0.0	-0.0	-0.0	-0.0	-0.0	-0.0	-0.0	-0.0	-0.0	-0.0
0.35050000000000003	-0.0	-0.0	-0.0	-2.297252655029297	5.592358589172363	-781.05810546875	-0.0	-0.0	-0.0	-0.0	-0.0	-0.0	-0.0	-0.0	-0.0	-0.0	-0.0	-0.0
0.35100000000000003	-0.0	-0.0	-0.0	-2.631802797317505	5.080062389373779	-780.6142578125	-0.0	-0.0	-0.0	-0.0	-0.0	-0.0	-0.0	-0.0	-0.0	-0.0	-0.0	-0.0
0.35150000000000003	-0.0	-0.0	-0.0	-2.31935453414917	4.902211666107178	-781.9404296875	-0.0	-0.0	-0.0	-0.0	-0.0	-0.0	-0.0	-0.0	-0.0	-0.0	-0.0	-0.0
0.352	-0.0	-0.0	-0.0	-2.4310128688812256	5.48167896270752	-780.704833984375	-0.0	-0.0	-0.0	-0.0	-0.0	-0.0	-0.0	-0.0	-0.0	-0.0	-0.0	-0.0
0.3525	-0.0	-0.0	-0.0	-2.609226703643799	6.328017711639404	-782.8237915039062	-0.0	-0.0	-0.0	-0.0	-0.0	-0.0	-0.0	-0.0	-0.0	-0.0	-0.0	-0.0
0.353	-0.0	-0.0	-0.0	-3.1223678588867188	7.775950908660889	-785.2077026367188	-0.0	-0.0	-0.0	-0.0	-0.0	-0.0	-0.0	-0.0	-0.0	-0.0	-0.0	-0.0
0.3535	-0.0	-0.0	-0.0	-3.857954978942871	8.802026748657227	-787.7667846679688	-0.0	-0.0	-0.0	-0.0	-0.0	-0.0	-0.0	-0.0	-0.0	-0.0	-0.0	-0.0
0.354	-0.0	-0.0	-0.0	-4.795563697814941	8.133315086364746	-787.5938720703125	-0.0	-0.0	-0.0	-0.0	-0.0	-0.0	-0.0	-0.0	-0.0	-0.0	-0.0	-0.0
0.3545	-0.0	-0.0	-0.0	-5.641956806182861	6.706455230712891	-790.7762451171875	-0.0	-0.0	-0.0	-0.0	-0.0	-0.0	-0.0	-0.0	-0.0	-0.0	-0.0	-0.0
0.355	-0.0	-0.0	-0.0	-5.978060722351074	4.924693584442139	-793.8516845703125	-0.0	-0.0	-0.0	-0.0	-0.0	-0.0	-0.0	-0.0	-0.0	-0.0	-0.0	-0.0
0.3555	-0.0	-0.0	-0.0	-6.624153137207031	2.918748140335083	-794.3016357421875	-0.0	-0.0	-0.0	-0.0	-0.0	-0.0	-0.0	-0.0	-0.0	-0.0	-0.0	-0.0
0.356	-0.0	-0.0	-0.0	-5.754696369171143	1.42608642578125	-794.9185180664062	-0.0	-0.0	-0.0	-0.0	-0.0	-0.0	-0.0	-0.0	-0.0	-0.0	-0.0	-0.0
0.3565	-0.0	-0.0	-0.0	-5.086381912231445	1.0469368696212769	-797.6541748046875	-0.0	-0.0	-0.0	-0.0	-0.0	-0.0	-0.0	-0.0	-0.0	-0.0	-0.0	-0.0
0.357	-0.0	-0.0	-0.0	-4.374350070953369	0.4214741885662079	-797.3905029296875	-0.0	-0.0	-0.0	-0.0	-0.0	-0.0	-0.0	-0.0	-0.0	-0.0	-0.0	-0.0
0.3575	-0.0	-0.0	-0.0	-3.991754531860352	-0.1572245806455612	-798.443359375	-0.0	-0.0	-0.0	-0.0	-0.0	-0.0	-0.0	-0.0	-0.0	-0.0	-0.0	-0.0
0.358	-0.0	-0.0	-0.0	-3.5474746227264404	-0.5784438848495483	-799.5164794921875	-0.0	-0.0	-0.0	-0.0	-0.0	-0.0	-0.0	-0.0	-0.0	-0.0	-0.0	-0.0
0.3585	-0.0	-0.0	-0.0	-3.388052701950073	-1.0240271091461182	-799.2384643554688	-0.0	-0.0	-0.0	-0.0	-0.0	-0.0	-0.0	-0.0	-0.0	-0.0	-0.0	-0.0
0.359	-0.0	-0.0	-0.0	-2.4999840259552	-1.6457805633544922	-799.9525146484375	-0.0	-0.0	-0.0	-0.0	-0.0	-0.0	-0.0	-0.0	-0.0	-0.0	-0.0	-0.0
0.3595	-0.0	-0.0	-0.0	-1.8962821960449217	-1.6043472290039062	-802.4976806640625	-0.0	-0.0	-0.0	-0.0	-0.0	-0.0	-0.0	-0.0	-0.0	-0.0	-0.0	-0.0
0.36	-0.0	-0.0	-0.0	-1.7636935710906982	-2.5209078788757324	-801.031005859375	-0.0	-0.0	-0.0	-0.0	-0.0	-0.0	-0.0	-0.0	-0.0	-0.0	-0.0	-0.0
